<mxfile host="app.diagrams.net" modified="2024-02-18T10:24:36.827Z" agent="Mozilla/5.0 (Macintosh; Intel Mac OS X 10_15_7) AppleWebKit/537.36 (KHTML, like Gecko) Chrome/121.0.0.0 Safari/537.36" version="23.1.5" etag="HSXMFfSMi2Ds8sjYjV6x" type="device">
  <diagram name="Page-1" id="qoPS_nE0NIGitj97A_mZ">
    <mxGraphModel dx="1774" dy="790" grid="0" gridSize="10" guides="1" tooltips="1" connect="1" arrows="1" fold="1" page="0" pageScale="1" pageWidth="850" pageHeight="1100" math="0" shadow="0">
      <root>
        <mxCell id="0" />
        <mxCell id="1" parent="0" />
        <mxCell id="dHawu9wA_jkm23mFmNaJ-5" value="" style="edgeStyle=none;curved=1;rounded=0;orthogonalLoop=1;jettySize=auto;html=1;fontSize=12;startSize=8;endSize=8;" parent="1" source="dHawu9wA_jkm23mFmNaJ-3" target="dHawu9wA_jkm23mFmNaJ-4" edge="1">
          <mxGeometry relative="1" as="geometry" />
        </mxCell>
        <mxCell id="dHawu9wA_jkm23mFmNaJ-3" value="Start" style="rounded=1;whiteSpace=wrap;html=1;fontSize=16;arcSize=50;" parent="1" vertex="1">
          <mxGeometry x="178" y="228" width="120" height="60" as="geometry" />
        </mxCell>
        <mxCell id="dHawu9wA_jkm23mFmNaJ-7" value="" style="edgeStyle=none;curved=1;rounded=0;orthogonalLoop=1;jettySize=auto;html=1;fontSize=12;startSize=8;endSize=8;" parent="1" source="dHawu9wA_jkm23mFmNaJ-4" target="dHawu9wA_jkm23mFmNaJ-6" edge="1">
          <mxGeometry relative="1" as="geometry" />
        </mxCell>
        <mxCell id="dHawu9wA_jkm23mFmNaJ-4" value="Fetch data from localstorage&lt;br&gt;" style="rounded=1;whiteSpace=wrap;html=1;fontSize=16;arcSize=0;" parent="1" vertex="1">
          <mxGeometry x="178" y="405" width="120" height="60" as="geometry" />
        </mxCell>
        <mxCell id="dHawu9wA_jkm23mFmNaJ-9" value="" style="edgeStyle=none;curved=1;rounded=0;orthogonalLoop=1;jettySize=auto;html=1;fontSize=12;startSize=8;endSize=8;" parent="1" edge="1">
          <mxGeometry relative="1" as="geometry">
            <mxPoint x="237.78" y="663" as="sourcePoint" />
            <mxPoint x="237.78" y="792" as="targetPoint" />
          </mxGeometry>
        </mxCell>
        <mxCell id="dHawu9wA_jkm23mFmNaJ-10" value="Yes" style="edgeLabel;html=1;align=center;verticalAlign=middle;resizable=0;points=[];" parent="dHawu9wA_jkm23mFmNaJ-9" vertex="1" connectable="0">
          <mxGeometry x="-0.4315" y="-4" relative="1" as="geometry">
            <mxPoint x="4" y="18" as="offset" />
          </mxGeometry>
        </mxCell>
        <mxCell id="dHawu9wA_jkm23mFmNaJ-12" value="No" style="edgeStyle=orthogonalEdgeStyle;rounded=0;orthogonalLoop=1;jettySize=auto;html=1;" parent="1" source="dHawu9wA_jkm23mFmNaJ-6" target="dHawu9wA_jkm23mFmNaJ-11" edge="1">
          <mxGeometry relative="1" as="geometry" />
        </mxCell>
        <mxCell id="dHawu9wA_jkm23mFmNaJ-6" value="Fulfilled?" style="rhombus;whiteSpace=wrap;html=1;fontSize=16;rounded=1;arcSize=0;" parent="1" vertex="1">
          <mxGeometry x="188" y="575" width="100" height="88" as="geometry" />
        </mxCell>
        <mxCell id="dHawu9wA_jkm23mFmNaJ-14" value="" style="edgeStyle=orthogonalEdgeStyle;rounded=0;orthogonalLoop=1;jettySize=auto;html=1;" parent="1" source="dHawu9wA_jkm23mFmNaJ-8" target="dHawu9wA_jkm23mFmNaJ-13" edge="1">
          <mxGeometry relative="1" as="geometry" />
        </mxCell>
        <mxCell id="dHawu9wA_jkm23mFmNaJ-16" value="" style="edgeStyle=orthogonalEdgeStyle;rounded=0;orthogonalLoop=1;jettySize=auto;html=1;" parent="1" source="dHawu9wA_jkm23mFmNaJ-8" target="dHawu9wA_jkm23mFmNaJ-15" edge="1">
          <mxGeometry relative="1" as="geometry">
            <Array as="points">
              <mxPoint x="444" y="847" />
            </Array>
          </mxGeometry>
        </mxCell>
        <mxCell id="dHawu9wA_jkm23mFmNaJ-18" value="" style="edgeStyle=orthogonalEdgeStyle;rounded=0;orthogonalLoop=1;jettySize=auto;html=1;" parent="1" source="dHawu9wA_jkm23mFmNaJ-8" target="dHawu9wA_jkm23mFmNaJ-17" edge="1">
          <mxGeometry relative="1" as="geometry" />
        </mxCell>
        <mxCell id="TXCViamV7n4DtDyd710U-15" value="" style="edgeStyle=orthogonalEdgeStyle;rounded=0;orthogonalLoop=1;jettySize=auto;html=1;" parent="1" source="dHawu9wA_jkm23mFmNaJ-8" target="TXCViamV7n4DtDyd710U-14" edge="1">
          <mxGeometry relative="1" as="geometry" />
        </mxCell>
        <mxCell id="dHawu9wA_jkm23mFmNaJ-8" value="Render countries list" style="rounded=1;whiteSpace=wrap;html=1;fontSize=16;arcSize=0;" parent="1" vertex="1">
          <mxGeometry x="178" y="792" width="120" height="60" as="geometry" />
        </mxCell>
        <mxCell id="2" style="edgeStyle=none;html=1;entryX=1;entryY=0.25;entryDx=0;entryDy=0;" parent="1" source="dHawu9wA_jkm23mFmNaJ-11" target="dHawu9wA_jkm23mFmNaJ-8" edge="1">
          <mxGeometry relative="1" as="geometry">
            <Array as="points">
              <mxPoint x="424" y="807" />
            </Array>
          </mxGeometry>
        </mxCell>
        <mxCell id="dHawu9wA_jkm23mFmNaJ-11" value="Fetch data from API and save it to localstorage" style="rounded=1;whiteSpace=wrap;html=1;fontSize=16;arcSize=0;" parent="1" vertex="1">
          <mxGeometry x="358" y="589" width="120" height="60" as="geometry" />
        </mxCell>
        <mxCell id="dHawu9wA_jkm23mFmNaJ-22" value="" style="edgeStyle=orthogonalEdgeStyle;rounded=0;orthogonalLoop=1;jettySize=auto;html=1;" parent="1" source="dHawu9wA_jkm23mFmNaJ-13" target="dHawu9wA_jkm23mFmNaJ-21" edge="1">
          <mxGeometry relative="1" as="geometry" />
        </mxCell>
        <mxCell id="dHawu9wA_jkm23mFmNaJ-13" value="Search for a country" style="whiteSpace=wrap;html=1;fontSize=16;rounded=1;arcSize=0;" parent="1" vertex="1">
          <mxGeometry x="19" y="924" width="120" height="60" as="geometry" />
        </mxCell>
        <mxCell id="TXCViamV7n4DtDyd710U-3" value="" style="edgeStyle=orthogonalEdgeStyle;rounded=0;orthogonalLoop=1;jettySize=auto;html=1;" parent="1" source="dHawu9wA_jkm23mFmNaJ-15" target="TXCViamV7n4DtDyd710U-2" edge="1">
          <mxGeometry relative="1" as="geometry" />
        </mxCell>
        <mxCell id="dHawu9wA_jkm23mFmNaJ-15" value="Choose a country from the list" style="rounded=1;whiteSpace=wrap;html=1;fontSize=16;arcSize=0;" parent="1" vertex="1">
          <mxGeometry x="384" y="924" width="120" height="60" as="geometry" />
        </mxCell>
        <mxCell id="dHawu9wA_jkm23mFmNaJ-17" value="Select region from dropdown" style="rounded=1;whiteSpace=wrap;html=1;fontSize=16;arcSize=0;" parent="1" vertex="1">
          <mxGeometry x="178" y="924" width="120" height="60" as="geometry" />
        </mxCell>
        <mxCell id="dHawu9wA_jkm23mFmNaJ-24" value="" style="edgeStyle=orthogonalEdgeStyle;rounded=0;orthogonalLoop=1;jettySize=auto;html=1;" parent="1" source="dHawu9wA_jkm23mFmNaJ-21" target="dHawu9wA_jkm23mFmNaJ-23" edge="1">
          <mxGeometry relative="1" as="geometry" />
        </mxCell>
        <mxCell id="dHawu9wA_jkm23mFmNaJ-29" value="No" style="edgeLabel;html=1;align=center;verticalAlign=middle;resizable=0;points=[];" parent="dHawu9wA_jkm23mFmNaJ-24" vertex="1" connectable="0">
          <mxGeometry x="-0.3538" y="-3" relative="1" as="geometry">
            <mxPoint as="offset" />
          </mxGeometry>
        </mxCell>
        <mxCell id="dHawu9wA_jkm23mFmNaJ-26" value="" style="edgeStyle=orthogonalEdgeStyle;rounded=0;orthogonalLoop=1;jettySize=auto;html=1;" parent="1" source="dHawu9wA_jkm23mFmNaJ-21" target="dHawu9wA_jkm23mFmNaJ-25" edge="1">
          <mxGeometry relative="1" as="geometry" />
        </mxCell>
        <mxCell id="dHawu9wA_jkm23mFmNaJ-30" value="Yes" style="edgeLabel;html=1;align=center;verticalAlign=middle;resizable=0;points=[];" parent="dHawu9wA_jkm23mFmNaJ-26" vertex="1" connectable="0">
          <mxGeometry x="-0.2676" y="2" relative="1" as="geometry">
            <mxPoint as="offset" />
          </mxGeometry>
        </mxCell>
        <mxCell id="dHawu9wA_jkm23mFmNaJ-21" value="result found?" style="rhombus;whiteSpace=wrap;html=1;fontSize=14;rounded=1;arcSize=0;" parent="1" vertex="1">
          <mxGeometry x="16.75" y="1049" width="124.5" height="105" as="geometry" />
        </mxCell>
        <mxCell id="dHawu9wA_jkm23mFmNaJ-23" value="Show &lt;br&gt;&quot;No result found&quot; message" style="rounded=1;whiteSpace=wrap;html=1;fontSize=14;arcSize=0;" parent="1" vertex="1">
          <mxGeometry x="-168" y="1071.5" width="120" height="60" as="geometry" />
        </mxCell>
        <mxCell id="dHawu9wA_jkm23mFmNaJ-25" value="Render results list" style="rounded=1;whiteSpace=wrap;html=1;fontSize=14;arcSize=0;" parent="1" vertex="1">
          <mxGeometry x="19" y="1226" width="120" height="60" as="geometry" />
        </mxCell>
        <mxCell id="dHawu9wA_jkm23mFmNaJ-38" value="" style="edgeStyle=orthogonalEdgeStyle;rounded=0;orthogonalLoop=1;jettySize=auto;html=1;entryX=1;entryY=0.5;entryDx=0;entryDy=0;" parent="1" source="dHawu9wA_jkm23mFmNaJ-17" target="dHawu9wA_jkm23mFmNaJ-21" edge="1">
          <mxGeometry relative="1" as="geometry">
            <mxPoint x="181" y="1010" as="sourcePoint" />
            <mxPoint x="314" y="1117" as="targetPoint" />
            <Array as="points">
              <mxPoint x="238" y="1102" />
              <mxPoint x="232" y="1101" />
            </Array>
          </mxGeometry>
        </mxCell>
        <mxCell id="TXCViamV7n4DtDyd710U-9" value="" style="edgeStyle=orthogonalEdgeStyle;rounded=0;orthogonalLoop=1;jettySize=auto;html=1;" parent="1" source="TXCViamV7n4DtDyd710U-2" target="TXCViamV7n4DtDyd710U-8" edge="1">
          <mxGeometry relative="1" as="geometry">
            <Array as="points">
              <mxPoint x="444" y="1228" />
              <mxPoint x="444" y="1228" />
            </Array>
          </mxGeometry>
        </mxCell>
        <mxCell id="TXCViamV7n4DtDyd710U-2" value="Open new page with the country details" style="whiteSpace=wrap;html=1;fontSize=16;rounded=1;arcSize=0;" parent="1" vertex="1">
          <mxGeometry x="384" y="1064" width="120" height="60" as="geometry" />
        </mxCell>
        <mxCell id="TXCViamV7n4DtDyd710U-11" style="edgeStyle=orthogonalEdgeStyle;rounded=0;orthogonalLoop=1;jettySize=auto;html=1;" parent="1" source="TXCViamV7n4DtDyd710U-8" edge="1" target="dHawu9wA_jkm23mFmNaJ-3">
          <mxGeometry relative="1" as="geometry">
            <Array as="points">
              <mxPoint x="446" y="1354" />
              <mxPoint x="816" y="1354" />
              <mxPoint x="816" y="258" />
            </Array>
            <mxPoint x="298" y="835" as="targetPoint" />
          </mxGeometry>
        </mxCell>
        <mxCell id="TXCViamV7n4DtDyd710U-8" value="Click &quot;Back&quot; button" style="whiteSpace=wrap;html=1;fontSize=16;rounded=1;arcSize=0;" parent="1" vertex="1">
          <mxGeometry x="384" y="1219" width="120" height="60" as="geometry" />
        </mxCell>
        <mxCell id="TXCViamV7n4DtDyd710U-14" value="Toggle theme" style="whiteSpace=wrap;html=1;fontSize=16;rounded=1;arcSize=0;" parent="1" vertex="1">
          <mxGeometry x="-268" y="924" width="120" height="60" as="geometry" />
        </mxCell>
      </root>
    </mxGraphModel>
  </diagram>
</mxfile>
